<?xml version="1.0" encoding="UTF-8" standalone="no"?>
<svg width="16px" height="11px" viewBox="0 0 16 11" version="1.1" xmlns="http://www.w3.org/2000/svg" xmlns:xlink="http://www.w3.org/1999/xlink">
    <!-- Generator: Sketch 41.2 (35397) - http://www.bohemiancoding.com/sketch -->
    <title>Rectangle</title>
    <desc>Created with Sketch.</desc>
    <defs></defs>
    <g id="Page-1" stroke="none" stroke-width="1" fill="none" fill-rule="evenodd">
        <rect id="Rectangle-4" fill="#FFFFFF" x="0" y="0" width="16" height="11"></rect>
        <rect id="Rectangle" fill="#1E34B2" x="0" y="0" width="8" height="7"></rect>
        <rect id="Rectangle-2" fill="#FFFFFF" x="3" y="1" width="1" height="1"></rect>
        <rect id="Rectangle-2" fill="#FFFFFF" x="1" y="1" width="1" height="1"></rect>
        <rect id="Rectangle-2" fill="#FFFFFF" x="5" y="1" width="1" height="1"></rect>
        <rect id="Rectangle-2" fill="#FFFFFF" x="2" y="3" width="1" height="1"></rect>
        <rect id="Rectangle-2" fill="#FFFFFF" x="4" y="3" width="1" height="1"></rect>
        <rect id="Rectangle-2" fill="#FFFFFF" x="6" y="3" width="1" height="1"></rect>
        <rect id="Rectangle-2" fill="#FFFFFF" x="1" y="5" width="1" height="1"></rect>
        <rect id="Rectangle-2" fill="#FFFFFF" x="3" y="5" width="1" height="1"></rect>
        <rect id="Rectangle-2" fill="#FFFFFF" x="5" y="5" width="1" height="1"></rect>
        <rect id="Rectangle-3" fill="#DA3E1F" x="8" y="0" width="8" height="1"></rect>
        <rect id="Rectangle-3" fill="#DA3E1F" x="8" y="2" width="8" height="1"></rect>
        <rect id="Rectangle-3" fill="#DA3E1F" x="8" y="4" width="8" height="1"></rect>
        <rect id="Rectangle-3" fill="#DA3E1F" x="8" y="6" width="8" height="1"></rect>
        <rect id="Rectangle-3" fill="#DA3E1F" x="0" y="8" width="16" height="1"></rect>
        <rect id="Rectangle-3" fill="#DA3E1F" x="0" y="10" width="16" height="1"></rect>
    </g>
</svg>