<?xml version="1.0" encoding="UTF-8" standalone="no"?>
<svg width="183px" height="200px" viewBox="0 0 183 200" version="1.1" xmlns="http://www.w3.org/2000/svg" xmlns:xlink="http://www.w3.org/1999/xlink">
    <!-- Generator: Sketch 39.1 (31720) - http://www.bohemiancoding.com/sketch -->
    <title>Lines</title>
    <desc>Created with Sketch.</desc>
    <defs></defs>
    <g id="Page-1" stroke="none" stroke-width="1" fill="none" fill-rule="evenodd">
        <g id="Desktop" transform="translate(-614.000000, -184.000000)" stroke="#003176" stroke-width="1.75">
            <g id="Lines" transform="translate(705.500000, 284.000000) rotate(-270.000000) translate(-705.500000, -284.000000) translate(606.500000, 193.500000)">
                <g transform="translate(0.000000, 50.000000)">
                    <path d="M5,29 C7.209139,29 9,27.209139 9,25 C9,22.790861 7.209139,21 5,21 C2.790861,21 1,22.790861 1,25 C1,27.209139 2.790861,29 5,29 Z" id="Oval" fill="#174C96"></path>
                    <path d="M4.875,30.5 L4.875,113.650467" id="Line" stroke-linecap="square"></path>
                    <path d="M55.4101715,63.3860857 L5,113.796259" id="Line" stroke-linecap="square"></path>
                    <path d="M56.0000013,48.490939 L56.0000013,62.2907495" id="Line" stroke-linecap="square"></path>
                    <path d="M127.432434,1.36382353 L5,123.796259" id="Line" stroke-linecap="square"></path>
                    <path d="M101.907652,93.3638235 L68.5675659,126.70391" id="Line" stroke-linecap="square" transform="translate(85.237609, 110.033867) scale(-1, 1) translate(-85.237609, -110.033867) "></path>
                    <path d="M127.432434,11.3638235 L39.3776682,99.4185867" id="Line" stroke-linecap="square"></path>
                    <path d="M128,58.6287727 L128,11" id="Line" stroke-linecap="square"></path>
                    <path d="M175.628773,59 L128,59" id="Line" stroke-linecap="square"></path>
                    <circle id="Oval" fill="#174C96" cx="174" cy="59" r="4"></circle>
                    <circle id="Oval" fill="#174C96" cx="69" cy="93" r="4"></circle>
                    <circle id="Oval" fill="#174C96" cx="56" cy="45" r="4"></circle>
                    <g id="Group" transform="translate(149.599976, 9.699997) scale(-1, 1) translate(-149.599976, -9.699997) translate(127.599976, 0.199997)">
                        <path d="M17.4101715,1.38608566 L4.79600447,14.0002527" id="Line" stroke-linecap="square"></path>
                        <path d="M43.6287727,1 L18.4950261,1" id="Line" stroke-linecap="square"></path>
                        <circle id="Oval" fill="#174C96" cx="4" cy="15" r="4"></circle>
                    </g>
                    <circle id="Oval" fill="#174C96" cx="102" cy="127" r="4"></circle>
                    <circle id="Oval" fill="#174C96" cx="38" cy="101" r="4"></circle>
                    <circle id="Oval" fill="#174C96" cx="4" cy="125" r="4"></circle>
                </g>
                <g transform="translate(107.000000, 62.000000) scale(-1, 1) translate(-107.000000, -62.000000) translate(16.000000, 0.000000)">
                    <circle id="Oval" fill="#174C96" cx="81" cy="4" r="4"></circle>
                    <path d="M80.875,9.5 L80.875,61.5013504" id="Line" stroke-linecap="square"></path>
                    <path d="M131.410172,42.3860857 L96.8928808,76.9033775" id="Line" stroke-linecap="square"></path>
                    <path d="M132.000001,27.490939 L132.000001,41.2907495" id="Line" stroke-linecap="square"></path>
                    <path d="M157.484133,26.3121272 L101.502996,82.2932623" id="Line" stroke-linecap="square"></path>
                    <path d="M177.907652,72.3638235 L144.567566,105.70391" id="Line" stroke-linecap="square" transform="translate(161.237609, 89.033867) scale(-1, 1) translate(-161.237609, -89.033867) "></path>
                    <path d="M93.5014191,101 L71.4489262,101" id="Line" stroke-linecap="square"></path>
                    <path d="M69.5020503,98 L8.48660844,98" id="Line" stroke-linecap="square"></path>
                    <circle id="Oval" fill="#174C96" cx="4" cy="98" r="4"></circle>
                    <circle id="Oval" fill="#174C96" cx="145" cy="72" r="4"></circle>
                    <circle id="Oval" fill="#174C96" cx="132" cy="24" r="4"></circle>
                    <g id="Group" transform="translate(124.599976, 71.199997) scale(-1, 1) translate(-124.599976, -71.199997) translate(86.599976, 21.199997)">
                        <g id="Group-2" transform="translate(61.000000, 79.800003)" stroke-linecap="square">
                            <path d="M7.41017151,0.386085659 L1.29490408,6.50135326" id="Line"></path>
                            <path d="M13.0436018,18.8164215 L1.31163478,7.08445445" id="Line"></path>
                        </g>
                        <circle id="Oval" fill="#174C96" cx="4.39996338" cy="4" r="4"></circle>
                    </g>
                    <circle id="Oval" fill="#174C96" cx="178" cy="106" r="4"></circle>
                    <g id="Group-3" transform="translate(7.700012, 116.000000)">
                        <path d="M80.5,4 L8.79824442,4" id="Line" stroke-linecap="square"></path>
                        <circle id="Oval" fill="#174C96" cx="4" cy="4" r="4"></circle>
                    </g>
                </g>
            </g>
        </g>
    </g>
</svg>